<svg width="562" height="562" viewBox="0 0 562 562" fill="none" xmlns="http://www.w3.org/2000/svg">
<path opacity="0.1" fill-rule="evenodd" clip-rule="evenodd" d="M0 281.001C0 245.339 6.64309 211.229 18.7593 179.841C19.6037 177.653 20.4747 175.479 21.3718 173.318C34.2393 142.329 52.4934 114.14 74.9657 89.9203C88.2126 75.6434 102.925 62.7455 118.864 51.4661C152.789 27.4586 192.271 10.7829 235 3.74668C249.968 1.28195 265.334 0 281 0C296.666 0 312.032 1.28195 327 3.74668C369.729 10.7829 409.211 27.4586 443.136 51.4661C459.075 62.7455 473.787 75.6434 487.034 89.9203C509.507 114.14 527.761 142.329 540.628 173.318C541.525 175.479 542.396 177.653 543.241 179.841C555.357 211.229 562 245.339 562 281.001C562 316.663 555.357 350.773 543.241 382.161H443.136C449.509 371.969 454.947 361.132 459.331 349.771C467.565 328.432 472.08 305.244 472.08 281.001C472.08 243.851 461.478 209.178 443.136 179.841L442.943 179.533C409.145 125.704 349.251 89.9203 281 89.9203C212.749 89.9203 152.855 125.704 119.057 179.533L118.864 179.841C100.522 209.178 89.92 243.851 89.92 281.001C89.92 305.244 94.4347 328.432 102.669 349.771C107.053 361.132 112.491 371.969 118.864 382.161H18.7593C6.64309 350.773 0 316.663 0 281.001ZM118.857 510.534C102.917 499.254 88.2049 486.357 74.958 472.08H487.027C473.78 486.357 459.067 499.254 443.128 510.534C397.319 542.951 341.38 562 280.992 562C220.604 562 164.665 542.951 118.857 510.534Z" fill="white"/>
</svg>
